<svg xmlns="http://www.w3.org/2000/svg" width="25" height="24" viewBox="0 0 25 24"><path d="M17.44 24h-1.122c-4.938-.572-8.556-2.818-11.187-5.693C2.49 15.423.405 11.712 0 6.724v-1.34c.092-.908.548-1.528 1.074-2.057.655-.657 1.642-1.501 2.54-1.532.663-.022 1.792.445 2.247 1.052.39.522.6 1.568.78 2.345.187.786.605 1.923.489 2.68-.177 1.18-1.776 1.68-2.247 2.537 1.562 3.67 4.118 6.367 7.524 8.23.853-.458 1.606-1.838 2.786-1.866.43-.012.979.206 1.416.336.48.14.897.321 1.32.477.71.262 1.97.612 2.394 1.196.436.602.686 1.586.585 2.2C20.713 22.2 18.666 23.55 17.44 24zM12.615 1.507c5.99 0 10.845 4.756 10.845 10.624H25C25 5.43 19.456 0 12.615 0z"/><path d="M12.615 9.2v1.53c.79 0 1.431.627 1.431 1.4h1.564c-.001-1.619-1.34-2.93-2.995-2.93zm0-3.04c3.368 0 6.098 2.673 6.098 5.972h1.599c0-4.163-3.446-7.537-7.697-7.537z"/></svg>
