<svg xmlns="http://www.w3.org/2000/svg" viewBox="0 0 15.875 15.775">
    <path fill="#231f20" d="M0 11.558l7.26 4.215V9.596L0 5.38zM13.585 3.29v.649c0 .48-.915.87-2.045.87-1.129 0-2.044-.39-2.044-.87V2.866h.006c.068.453.953.813 2.037.813 1.13 0 2.045-.39 2.045-.87s-.914-.87-2.045-.87c-.09 0-.178.004-.265.009l-1.316-.764V2c0 .48-.914.87-2.043.87-.71 0-1.335-.154-1.702-.388a1.04 1.04 0 0 0-.194-.155.476.476 0 0 1-.15-.327v-.79l-1.271.739a5.097 5.097 0 0 0-.28-.009c-1.128 0-2.044.389-2.044.87 0 .48.916.87 2.045.87 1.084 0 1.97-.36 2.038-.814h.006V3.94c0 .481-.914.87-2.044.87s-2.045-.389-2.045-.87V3.3L.7 4.213l7.284 4.23L15.22 4.24zm-3.61 2.69c0 .48-.915.87-2.044.87-1.13 0-2.045-.39-2.045-.87V4.907h.006c.069.453.953.814 2.039.814 1.085 0 1.969-.36 2.038-.814h.006V5.98zM8.614 9.65v6.124l7.26-4.217V5.434zM7.915 1.74c1.13 0 2.044-.389 2.044-.87C9.959.39 9.045 0 7.915 0S5.87.39 5.87.87s.915.87 2.045.87"/>
</svg>
