<svg xmlns="http://www.w3.org/2000/svg" width="27.5" height="11.5" viewBox="0 0 27.5 11.5"><path d="M20.47 2.833a24.975 24.975 0 0 0-6.276-.827c-1.468 0-2.771.121-3.915.31L6.834 0 0 .002 2.95 3.07h4.29c-2.325.793-3.43 1.743-3.43 1.743l.001 1.874s1.174.948 3.52 1.745L2.95 8.43 0 11.499l6.832.001 3.461-2.327c1.149.197 2.449.32 3.9.321 2.297 0 4.425-.346 6.277-.827-.597-.88-.972-1.856-.974-2.915.002-1.062.375-2.04.974-2.92zm1.738.513c-.652.796-1 1.612-.998 2.4-.004.793.344 1.607 1 2.405C25.458 7.078 27.5 5.75 27.5 5.75s-2.04-1.33-5.292-2.404z"/></svg>
