<svg xmlns="http://www.w3.org/2000/svg" width="23" height="20" viewBox="0 0 23 20"><path d="M22.96 4.05c-.222-.363-.89-.275-1.378-.368h-1.088c.139-.35.335-.64.509-.955.055-.434.248-.728.218-1.25.126-.165.172-.413.29-.587.102-.143.237-.473.072-.661-.05-.22-.288-.247-.58-.22a.504.504 0 0 0-.218.146c-.438.43-.761 1.006-1.234 1.396-.009.008-.06 0-.073 0-.085.005-.032.046-.073.074-.143.097-.252.15-.361.22-.278.175-.536.442-.873.515-.518-.209-1.132-.323-1.813-.367-1.133.102-2.255.214-2.975.735-.891.347-1.446 1.033-2.104 1.616-.048.318-.334.395-.362.735-.005.045-.012.087-.071.073.042.24-.05.342-.073.515 0 .132.195.427 0 .515-.805-.118-1.454-.624-2.104-.955-.703-.357-1.437-.6-2.03-1.102-.701-.32-1.234-.809-1.741-1.323-.204-.309-.53-.491-.653-.882-.371-.163-.172-.904-.726-.881-.308-.043-.338.197-.435.366-.068.226-.353.23-.363.515-.004.046-.01.087-.072.074-.167 1.08-.516 1.975-.508 3.233.126.411.342.731.58 1.029-.409.05-.7.22-.871.514-.059 1.064.37 1.633.726 2.278.132.38.345.68.58.955.018.227.203.285.29.44.02.105.121.125.147.222-.04.104.283.179.071.22-.404.129-.995.069-1.233.367-.106.277-.106.826 0 1.102.034.235.277.26.29.514.489.414 1.06.74 1.597 1.103.562.164 1.186.268 1.813.367-.1.34-.33.546-.58.734-.764.378-1.81.47-2.685.734-.543.038-.936.228-1.523.221-.326.126-.836.074-1.09.221-.119.068-.099.095-.216.22-.132.408.108.733.434.882-.005.25.215.273.364.368.087.181.248.287.435.366.533.464 1.242.753 1.887 1.103.813.181 1.613.373 2.467.515.877.115 1.861.122 2.757.22h.943c.5.13 1.204.053 1.814.073.093-.101.316-.072.509-.073.51-.267 1.17-.382 1.596-.734.562-.239.969-.637 1.525-.882.848-.759 1.896-1.313 2.466-2.35.201-.188.344-.435.436-.734.26-.155.377-.45.58-.661.396-.407.692-.917 1.016-1.388.312-.492.564-1.046.871-1.543-.01-.402.3-.48.29-.883.189-.224.173-.656.363-.872-.032-.253.029-.412.073-.59.046-1.27-.046-2.4-.291-3.377.576-.154 1.156-.3 1.597-.588.509-.204.972-.598.791-1.27zm-3.337 4.04c-.15.852-.602 1.398-1.016 1.984.058.376-.102.534-.072.882-.154.309-.28.646-.363 1.028-.199.264-.325.6-.508.882-.358.543-.76 1.042-1.161 1.544-.37.555-.893.957-1.306 1.468-.411.49-.923.878-1.378 1.323a4.812 4.812 0 0 0-1.233.661c-.228.09-.454.179-.654.294-.173.145-.488.144-.654.287-1.063.146-2.251.169-3.48.147-1.01-.104-2.071-.158-2.976-.368-.902-.187-1.48-.706-2.249-1.028.15-.24.621-.153.943-.22.03-.165.386-.003.435-.148.252.06.279-.108.51-.07.55-.199 1.203-.299 1.668-.587.277-.137.398-.43.653-.588.033-.188.102-.338.218-.44.046-.273.197-.438.145-.808.108-.209.292-.34.29-.662-.073-.145-.126-.313-.29-.368-.026-.194-.37-.066-.435-.22-.25.032-.407-.028-.58-.074-.151-.043-.477.091-.509-.072-.824-.023-1.273-.427-1.814-.734.422-.26 1.01-.35 1.305-.736.505-.075 1.036-.128 1.089-.66 0-.711-.755-.656-1.305-.808-.757-.655-1.17-1.658-1.742-2.499.233-.155.552-.224.725-.44.445.057.53-.249.654-.516.018-.483-.327-.6-.581-.808a3.445 3.445 0 0 1-.653-.733c-.003-.811-.02-1.638.072-2.352.062-.014.069.029.073.073.222.437.547.769.798 1.176.52.354.905.846 1.523 1.103.443.41 1.085.615 1.525 1.029.588.26 1.133.565 1.668.881.655.193 1.034.667 1.96.588.193-.097.385-.197.58-.294.252-.452-.058-1.07.144-1.616.25-.654.78-1.023 1.233-1.469.284-.154.544-.332.798-.514.34-.098.661-.215.944-.367a6.021 6.021 0 0 0 1.015-.147h1.234c.239.052.465.118.725.147.204.136.372.31.652.368.772.687 1.244 1.681 1.38 3.013-.12.48.051.865 0 1.468zm.29-5.584c-.126.337-.225.701-.58.808-.017-.104-.12-.124-.144-.22-.012-.207.204-.184.29-.294.158-.084.24-.245.434-.294-.007-.09.106-.046 0 0zm-5.37 3.012c.16.134.279.308.509.368.099.22.307.324.581.367.046-.149.34-.049.363-.22.17-.023.162-.227.29-.295-.018-.545-.127-.997-.363-1.321-.742-.42-1.64.038-1.38 1.101z"/></svg>
