<svg xmlns="http://www.w3.org/2000/svg" width="20.5" height="31" viewBox="0 0 20.5 31"><path d="M7.736 18.854c-.146.481-.125 1.089.013 1.807.251 1.309.86 3 1.203 4.803h2.58c.353-1.808.993-3.5 1.259-4.81.146-.716.166-1.319.019-1.796-.138-.445-.452-.804-1.029-1.144H8.725c-.547.337-.853.691-.988 1.14zm6.03 9.931H6.734a1.14 1.113 0 0 0-1.175 1.107V31h9.38v-1.108a1.14 1.113 0 0 0-1.172-1.107zm3.633-27.678h-5.975c0-.62-.517-1.107-1.171-1.107-.656 0-1.174.487-1.174 1.107H3.095L0 13.78c.405-.23.808-.492 1.34-.492.695 0 1.144.404 1.492.68.346.28.592.423.738.423.148 0 .39-.142.739-.415.346-.272.798-.675 1.486-.675.687 0 1.14.401 1.486.674.349.273.594.416.74.416.076 0 .174-.037.297-.106.123-.07.269-.175.443-.31.262-.205.582-.481 1.015-.605a1.643 1.601 0 0 1 .474-.067c.685 0 1.14.4 1.489.672.346.271.59.416.74.416.144 0 .389-.146.736-.422.346-.274.8-.678 1.491-.678.692 0 1.14.405 1.486.68.175.138.322.244.444.313a.628.613 0 0 0 .294.107c.147 0 .39-.146.735-.425.346-.277.8-.686 1.492-.686.535 0 .938.263 1.343.494zm-5.41 25.464H8.493a.564.55 0 0 0-.59.554c0 .316.252.552.59.552h3.513a.564.55 0 0 0 .588-.552.564.55 0 0 0-.588-.554zM10.248 14.41a.675.659 0 0 0-.294.105c-.078.047-.189.131-.289.205v1.853h1.172v-1.855c-.258-.188-.462-.31-.586-.31z"/></svg>
