<svg xmlns="http://www.w3.org/2000/svg" viewBox="0 0 10.642 16.513">
    <path d="M4.016 10.043c-.076.256-.065.58.007.963.13.697.446 1.598.624 2.558h1.339c.184-.963.516-1.865.654-2.562.076-.382.087-.703.01-.957-.072-.237-.235-.428-.534-.609H4.529c-.284.18-.443.368-.513.607zM7.146 15.333h-3.65a.592.592 0 0 0-.61.59v.59H7.755v-.59a.592.592 0 0 0-.608-.59zM9.033.59H5.93c0-.33-.268-.59-.608-.59-.34 0-.609.26-.609.59H1.607L0 7.34c.21-.122.42-.262.696-.262.36 0 .594.216.774.363.18.148.307.225.383.225.077 0 .203-.076.384-.221.18-.145.414-.36.771-.36.357 0 .592.214.772.359.181.145.308.222.384.222.039 0 .09-.02.154-.057.064-.037.14-.093.23-.165.136-.109.302-.256.527-.322a.853.853 0 0 1 .246-.036c.356 0 .592.213.773.358.18.145.306.222.384.222.075 0 .202-.078.382-.225.18-.146.416-.361.774-.361.359 0 .592.216.772.362.09.073.167.13.23.167a.326.326 0 0 0 .153.057c.076 0 .202-.078.381-.226.18-.148.415-.366.775-.366.277 0 .487.14.697.263zM6.224 14.154H4.408a.293.293 0 0 0-.305.295c0 .168.13.294.305.294h1.825a.293.293 0 0 0 .305-.294.293.293 0 0 0-.305-.295zM5.32 7.676c-.038 0-.089.02-.153.056-.041.025-.098.07-.15.109v.987h.608V7.84c-.134-.1-.24-.165-.304-.165z"/>
</svg>