<svg xmlns="http://www.w3.org/2000/svg" width="30" height="30"><path d="M0 21.982l13.72 8.016V18.25L0 10.233zM25.673 6.257V7.49c0 .915-1.728 1.657-3.863 1.657-2.133 0-3.863-.742-3.863-1.655V5.45h.011c.129.862 1.8 1.547 3.85 1.547 2.134 0 3.864-.742 3.864-1.655 0-.912-1.727-1.654-3.865-1.654-.17 0-.335.007-.5.017L18.82 2.252v1.551c0 .914-1.728 1.655-3.862 1.655-1.341 0-2.523-.293-3.216-.738a1.967 1.978 0 0 0-.367-.295.9.905 0 0 1-.283-.622V2.302L8.69 3.707a9.633 9.693 0 0 0-.53-.017c-2.132 0-3.862.74-3.862 1.655 0 .912 1.73 1.653 3.864 1.653 2.05 0 3.723-.683 3.851-1.548h.012v2.043c0 .915-1.727 1.655-3.863 1.655-2.134 0-3.864-.74-3.864-1.655V6.277L1.323 8.013l13.767 8.044 13.673-7.994zm-6.821 5.116c0 .914-1.73 1.655-3.864 1.655-2.135 0-3.865-.741-3.865-1.655V9.332h.012c.13.861 1.8 1.55 3.853 1.55 2.05 0 3.722-.685 3.852-1.55h.012zm-2.572 6.98V30L30 21.98V10.333zM14.958 3.31c2.135 0 3.864-.74 3.864-1.655C18.822.742 17.093 0 14.958 0s-3.865.742-3.865 1.655 1.73 1.655 3.867 1.655"/></svg>