<svg xmlns="http://www.w3.org/2000/svg" width="27" height="34"><path d="M13.648.017L13.499 0 0 1.408v24.596L13.5 34l13.458-7.969.042-.025V1.408zM25.07 12.095L13.523 5.32l-.001-.104-.088.05-.088-.056v.109L1.93 12.086V3.139l11.57-1.21 11.57 1.21v8.956zM13.432 6.769l11.542 6.695-4.488 2.633-7.108-4.21-.014 1.412 5.916 3.504-.861.505-5.04-2.984-.015 1.411 3.835 2.27-.784.521-3.037-1.782-.014 1.409 1.857 1.088-1.804 1.078-11.379-6.733zM1.93 15.087l11.434 6.773.016 1.041-7.958-4.715-.015 1.412 7.995 4.782.018 1.074-7.989-4.728-.013 1.41 8.037 4.81.046.025 8.16-4.86-.01-5.163 3.421-2.03v9.994L13.5 31.766 1.93 24.913z"/></svg>