<svg xmlns="http://www.w3.org/2000/svg" width="22" height="21"><path d="M21.997 11.95c-.013-2.358-.348-4.714-.306-7.024a36.318 36.318 0 0 0-.154-2.243c-.106-.296-.112-.688-.153-1.046-.263-.167-.225-.63-.461-.822C20.495.585 19.709.703 19.16.6c-.664-.026-1.267-.114-1.92-.151-1.956-.1-4.015-.075-6.06-.075A45.154 45.154 0 0 1 5.426 0H3.2c-.098.004-.107.096-.23.075-.605.033-1.088.185-1.612.298a2.866 2.866 0 0 1-.69.3C.53.86.149.814.054 1.045c-.188.208.187.444 0 .597v.897c.175.128.028.571.076.822v.972c-.017 1.261.136 2.36.077 3.662.472 2.72.378 6.436.077 9.268.156.57.367 1.088.46 1.719.258.471.338 1.115.69 1.496.507.203 1.246.183 1.918.226.387.096.674.288 1.152.295 2.874-.207 5.555-.152 8.517-.225 2.733.236 5.864.185 8.364-.225.197-.132.129-.52.23-.748-.057-.38.21-.442.23-.747.133-2.358.166-4.715.152-7.105zM8.877 5.822c.765-.151 1.495-.336 2.454-.3.718.075 1.301.279 1.918.45.117.18-.246.538.154.673v.074c.06.017.15.002.153.075.45.035.802.165 1.074.373.455.055.542.469 1.15.296-.092.21-.085.516-.075.822.327 1.165.48 2.766.306 4.186-.166.16-.217.435-.306.672-.315.317-.487.773-.845 1.046a1.075 1.075 0 0 1-.46.525c-.116.21-.207.445-.461.522-.301.16-.583.01-.843-.075-.45.16-.914.307-1.228.597-.825-.094-1.666-.172-2.456-.299-.244-.137-.492-.269-.844-.3a2.027 2.027 0 0 0-.845-.448c-.102-.125-.34-.116-.46-.226-.2-.028-.231-.223-.46-.225-.12-.406-.448-.609-.538-1.046-.228-.326-.311-.792-.46-1.196-.043-1.412.092-2.65.383-3.737.35-.582.787-1.077 1.15-1.644.252.02.37-.089.384-.3.31.053.439-.07.692-.073.26.007.271-.305.462-.442zM7.188 3.13c-.119-.26-.067-.68-.076-1.046-.007-.28.28-.274.307-.524-.003-.072-.094-.058-.153-.074.127-.144.708-.096.842 0 .134.528-.357.448-.536.673.01.164.325.032.46.075.03.84-.059 1.473 0 2.168h-.46c-.007.23.231.222.46.224-.059.282.094.358.076.598-.228.15-.723.041-1.073.074-.104-.585.238-1.354.153-2.168zm-.69-1.57c.088-.012.135.016.152.075.18.25.01.673-.077.897-.175-.176-.026-.671-.076-.972zm.153 1.794c-.133-.068-.17-.233-.154-.449.134.07.17.235.154.45zm0 1.346c-.059.137-.083-.044-.077-.15.059-.136.082.045.077.15zm-.154.225c.177-.024.085.215.23.223-.008.19-.285.176-.383.076.04-.11.114-.19.153-.3zM4.12 3.728c.006-.106.013-.21-.077-.224-.073-.722.132-1.393 0-1.943.253-.152.778-.04 1.152-.075v1.121a.508.508 0 0 1-.383.076c-.055.276.327.129.383.3.008.839-.057 1.749.153 2.39-.57-.058-.915.106-1.457.075.098-.602-.02-1.412.537-1.569-.013-.139-.26-.046-.308-.15zm-.536 0c-.207.021-.22-.525-.078-.597.331.006.251.493.078.597zm-.154.973c.078-.307.034-.3.076-.672.23.012.263.758-.076.672zm.23-2.018c-.265.053-.275-.262-.154-.374.266-.052.275.263.154.374zm0-1.122c.034.157-.052.198-.076.3-.178.022-.085-.216-.232-.226.025-.1.193-.06.308-.074zm-.23 3.664c.15-.03.111.34-.077.223a.352.352 0 0 0 .077-.223zM2.738 1.56c.029.255-.443.316-.383 0zm-.998.075c-.034.216-.33.177-.383.373-.216-.167.085-.46.383-.373zm-.46.748c.229-.202.456-.404.692-.598-.022-.121.071-.129.076-.225h.232c.103.376-.264.292-.308.523.02.12-.073.13-.076.224.02.33.122.579.076.972-.273.008-.28.276-.614.224.022-.421-.136-.664-.078-1.12zm.077 3.214v-1.57c.197-.181.4-.358.614-.523.298.481.18 1.37.46 1.868-.278.154-.759.109-1.074.225zM19.773 16.51c-.11.939-.16 1.937-.384 2.765-2.92.121-6.084.005-8.977.15-.201.045-.276-.03-.232-.225-.255 0-.26.243-.536.226.203-.331.442-.884.152-1.271-.805.012-.805.808-1.15 1.27-.693-.051-1.15.126-1.842.075.182-.695.758-1.006.92-1.718-.399-.542-1 .135-1.227.448-.206.472-.563.797-.768 1.27h-.995c.24-.462.494-.912.767-1.345.173-.504.632-.73.69-1.346-.159-.276-.424-.029-.69 0-.124.179-.275.33-.384.523-.235.37-.507.703-.691 1.122-.183.205-.34.003-.536.223-.393.267-.587.725-.999.972-.176-.059.04-.35.155-.374.045-.178-.097-.541.076-.598.063-.36.214-.637.383-.895.12-.731.526-1.18.691-1.87-.565.098-.681.634-.998.973-.215.438-.548.76-.69 1.27-.177-.128-.029-.57-.078-.822.124-.577.302-1.102.385-1.72.134-.216.174-.526.23-.82.17-.206.046-.601-.078-.75-.228.027-.378.131-.46.3-.194-.032-.195.498-.307.299-.045-2.547-.456-4.738-.46-7.323.025-.326-.186-.417-.231-.674a73.45 73.45 0 0 1 4.834.225c-.09.137-.201.253-.307.373-.146.07-.229.17-.383.3-.61 1.627-.985 3.922-.613 6.054.231.571.595 1.013.997 1.419.916.478 1.652 1.131 2.532 1.645 1.72.356 3.881.363 5.6 0 .239-.118.49-.222.693-.374 1.378-1.223 2.782-2.42 2.992-4.784v-1.346c-.199-1.573-.695-2.86-1.765-3.587.334-.217 1.11.042 1.687.075.226.012.452.013.692 0 .412-.024.938-.055 1.458 0 .146.184.114.535.23.748-.062 1.658-.193 3.249-.153 5.008.104.447.128.97.231 1.419a16.53 16.53 0 0 1-.461 2.69zm.383-10.988c-.646-.118-1.246-.28-1.918-.373.073-.328.808-.01.998-.224.389-.22.298-.906.307-1.487.032-.343.115-.634.077-1.047-.405-.936-1.802-.414-2.917-.448-.227.707-.475 1.773-.307 2.616.17.483 1.035.288 1.535.45-.141.326-.695.055-.997.074-.3-.082-.715-.051-.997-.149-2.31.077-4.33.004-6.599.15.119-1.23.064-2.428-.076-3.59h3.145c-.348.359-.922.5-1.304.823-.445.24-.87.497-1.151.896.252.132.54-.24.767-.373.359-.073.484-.375.844-.448.427-.43 1.108-.615 1.688-.898.382-.021.704.013.997.076 1.297.007 2.482.124 3.837.075.62.143 1.465.068 1.995.3.108.293.233.57.308.896.008.971-.15 1.788-.232 2.681zM14.248 1.86c.111-.047-.009-.09 0 0zm0 0c-.534.151-1.03.342-1.381.671.489-.195 1.07-.301 1.381-.671zm1.074.597c.112-.046-.008-.09 0 0zm-1.765.897c.735-.155 1.193-.582 1.765-.897-.442.02-.599.315-.998.374-.217.213-.606.255-.767.523zm-.69-.822c-.113.046.007.09 0 0zm-.69.598c.11-.045-.009-.09 0 0zm-.076.075c.063.013.07-.03.075-.075-.064-.014-.072.03-.075.075zm-.078.074c.064.014.072-.03.078-.074-.068-.013-.073.028-.078.074zm-.843.599c.35-.132.62-.343.843-.598a2.035 2.035 0 0 0-.843.598zm2.3.972c.539-.048.757-.41 1.228-.523.287-.293.792-.375.998-.748-.566.022-.775.393-1.23.523-.286.292-.758.406-.996.748zm-2.3-.972c-.32-.073-.016.224 0 0zm-.539.373c.021.02.116-.036.077-.076-.021-.02-.117.038-.077.076zm2.84.599c-.112.046.006.09 0 0zm-1.153 1.793c-.225-.228-.683-.23-.997-.374-.704-.037-1.236.092-1.764.226-.307.149-.614.3-.92.447-.269.163-.449.41-.768.524-.207.221-.356.502-.691.597-.004.22-.175.277-.308.373-.09.114-.095.308-.229.376-.007.118.036.285-.077.298.11 1.488.294 2.902.69 4.112.29.614.986.833 1.458 1.27.595.293 1.342.437 2.149.523.28-.051.558-.103.92-.075 1.222-.206 2.12-.724 2.84-1.418.101-.277.255-.5.46-.674-.257-.66.296-1.08.46-1.565.002-1.324-.203-2.442-.614-3.362-.258-.57-.93-.74-1.38-1.122-.06-.018-.152-.003-.153-.076-.272-.134-.74-.235-1.076-.08zm-3.452 4.26c-.114-.062-.11-.24-.153-.373.259-.077.12.233.153.373zm.077.3c.042-.115.08-.006.077.074-.04.116-.08.005-.077-.074zm.461-2.02c.015-.084.076-.04.076 0-.014.086-.076.043-.076 0zm1.688-2.091c-.205.254.041.567.078.823-.308-.039-.58-.874-.078-.823zm.383 3.886c-.04-.037.056-.095.077-.074.04.037-.055.095-.077.074zm.767 2.84c.034-.107.067.008.154 0-.018.095-.152.076-.154 0zm2.225-2.541c-.236-.056-.147.205-.383.15.07-.157.119-.333.231-.449.135.02.174.128.152.299zm-1.15-3.737c.214.117.446.213.613.375.086.215.246.357.384.52.059.766.18 1.47.153 2.318-.26.097-.443.267-.69.375-.789-.006-1.373-.209-1.918-.449-.173-.255-.359-.497-.538-.747V8.887a4.2 4.2 0 0 0 .461-.597c.23-.125.514-.198.46-.598a.353.353 0 0 1-.077-.225c.16.044.248.156.383.225.327.017.415-.197.77-.151z"/></svg>