<svg xmlns="http://www.w3.org/2000/svg" width="21" height="18"><path d="M8.305.002a.785.785 0 0 0-.742.395L4.036 6.903H.776c-.429 0-.776.32-.776.717 0 .395.347.716.776.716H.94l.885 2.855c-.194.13-.328.331-.328.568 0 .38.319.68.72.707L3.932 18h13.137l1.714-5.534c.402-.026.723-.33.723-.707 0-.237-.134-.437-.328-.568l.885-2.857h.162c.428 0 .775-.32.775-.714 0-.396-.348-.717-.777-.717h-3.262L13.436.397c-.192-.354-.656-.497-1.041-.32-.384.177-.538.607-.346.96l3.178 5.866H5.772L8.95 1.037c.191-.354.038-.784-.346-.96a.826.826 0 0 0-.3-.075zM2.551 8.337h15.893l-.838 2.71H3.391zm1.283 4.142h13.328l-1.265 4.09H5.1z"/></svg>