<svg xmlns="http://www.w3.org/2000/svg" width="17.5" height="17"><path d="M.146 6.958a8.289 8.289 0 0 0 .004 3.117l2.098-1.588zM12.424.784a8.993 8.993 0 0 0-7.766.201l3.825 2.782zm4.836 5.732L14.81 8.37l2.514 1.827a8.292 8.292 0 0 0-.064-3.68zM4.689 16.031a8.993 8.993 0 0 0 8.008.056l-4.122-2.998zM4.03 7.138L.855 4.831c-.163.33-.303.67-.42 1.016l2.702 1.966zm5.436 5.277l4.244 3.087a8.742 8.742 0 0 0 .886-.679l-4.239-3.083zM5.81 5.79L2.039 3.046c-.236.272-.45.557-.646.852L4.92 6.464zm5.438 5.276l4.12 2.997c.24-.27.46-.55.66-.842l-3.889-2.829zM7.593 4.441l-3.93-2.857a8.815 8.815 0 0 0-.87.69l3.909 2.842zm5.437 5.277l3.55 2.582c.167-.327.313-.663.435-1.005l-3.094-2.25zm.436-8.379L.448 11.19a8.4 8.4 0 0 0 .427 1.019l13.502-10.22a8.65 8.65 0 0 0-.911-.65zm2.186 1.937a8.684 8.684 0 0 0-.478-.547L1.42 13.14a8.486 8.486 0 0 0 .65.85L15.863 3.55a8.166 8.166 0 0 0-.21-.273zm.792 1.174L2.827 14.758a8.6 8.6 0 0 0 .87.684L16.913 5.437a8.374 8.374 0 0 0-.47-.986z"/></svg>