<svg xmlns="http://www.w3.org/2000/svg" width="51" height="17"><path d="M9.604 10.73c-.042-1.34-.256-2.67-.238-4.011.014-1.085.195-2.202-.181-3.242.024-.119.048-.237.07-.355.097-.522-1.641-.246-1.913.231-.173.14-.261.307-.189.478.019.043.035.087.052.13-.33 1.6-.788 3.148-1.316 4.699-.202.593-.446 1.172-.651 1.763-.293-.55-.587-1.095-.825-1.686-.69-1.713-1.311-3.445-2.152-5.094.096-.763-1.608-.683-1.943.016-.407.845-.354 1.698-.22 2.602.15 1.02.177 2.022.189 3.051.023 1.985.18 3.965.21 5.95-.178.197-.232.44-.046.686.08.108.18.19.286.274.454.362 1.757.054 1.755-.634-.007-2.058-.157-4.113-.211-6.17a48.682 48.682 0 0 1-.012-.603l.086.216c.32.801.657 1.58 1.096 2.324.436.737.654 1.53.905 2.334-.095.109-.152.23-.117.354-.02.09.035.145.126.18.321.273.924.136 1.26-.004.144-.06.281-.13.414-.212.173-.106.443-.339.366-.578l-.044-.14c.236-.633.356-1.292.485-1.961.136-.713.392-1.388.65-2.063l.078.926c.102 1.274.016 2.531.003 3.806-.004.423.028.815.11 1.229.034.171.185.902.141.942-.306.281-.217.627.194.717.459.1 1.044-.052 1.39-.37.601-.552.317-1.42.181-2.117-.227-1.17.048-2.478.011-3.668zm4.198.337c-.037-.993-.384-1.928-.389-2.932-.005-1.15.091-2.292-.077-3.437-.054-.362-2.036.05-1.966.524.155 1.053.099 2.111.08 3.172-.019 1.02.234 1.946.366 2.947.135 1.025-.042 2.075.075 3.102.054.48.376 1.369.044 1.787-.21.265.738.17.78.162.386-.07.9-.195 1.156-.518.328-.413.099-1.21.027-1.676-.159-1.027-.057-2.094-.096-3.131zm8.195-1.657c-1.035-1.39-2.955-.39-4.296-.769-.691-.196-.7-1.134-.699-1.695a17.498 17.498 0 0 0-.137-2.07c-.06-.525-.012-1.059.374-1.45.072-.071.432-.167.407-.169.178-.03.34-.038.535-.046.778-.033 2.316.116 2.018 1.24-.134.504 1.804.215 1.945-.319.61-2.295-3.655-1.853-4.86-1.536-1.11.294-2.334.921-2.397 2.196-.031.608.137 1.187.163 1.79.03.694-.1 1.386.145 2.056.543 1.489 2.77.787 3.903.871 1.93.143 1.354 2.73 1.38 3.935.013.643.592 1.712.106 2.25-.3.33-.995.349-1.402.383-.408.034-1.104.156-1.376-.23-.498-.708.046-1.896-.06-2.708-.061-.461-2.041-.047-1.967.524.172 1.312-.702 3.068 1.206 3.293 1.225.144 2.605-.08 3.764-.463.6-.198 1.158-.47 1.628-.895.52-.47.348-1.172.21-1.77-.34-1.458.366-3.135-.59-4.418zm8.697-.095c-.061-1.885-.347-3.75-.355-5.639-.004-.984-1.989-.651-1.986.171.008 1.801.25 3.578.343 5.374l.006.11c-.978-.009-1.957.088-2.937.123.1-2.313-.307-4.606-.219-6.917.011-.29-1.944-.045-1.966.523-.085 2.234.295 4.45.228 6.685-.032 1.067-.123 2.129-.13 3.196-.004.547.086 1.09.165 1.629.073.499.243 1.163.091 1.656-.119.386 1.787.145 1.939-.346.273-.888-.112-2.016-.204-2.915-.088-.861-.02-1.747.042-2.62 1.019-.065 2.037-.148 3.051-.006.046.688.099 1.375.162 2.064.053.577.09 1.155.098 1.735.008.508.072 1.246-.11 1.727-.388 1.027 1.58.943 1.868.182.353-.934.252-2.096.192-3.077-.074-1.22-.24-2.433-.278-3.655zm8.498 2.234C38.72 10.172 38 8.965 37.377 7.657c.502-.973 1.013-1.946 1.472-2.94.417-.902.725-1.906 1.545-2.541.288-.223.276-.448-.128-.475-.439-.03-1.036.096-1.39.37-.745.578-1.218 1.28-1.606 2.13a79.832 79.832 0 0 1-1.463 3.033l-.112.222c-.246.157-.394.38-.321.631-.398.78-.803 1.556-1.254 2.302-.15-2.763-.48-5.522-.577-8.287-.023-.634-1.994-.239-1.966.524.122 3.428.611 6.848.645 10.277l-.024.025c-.15.154-.095.247.026.3.001.874-.03 1.748-.105 2.623-.237.372.233.569.544.569h.048c.371 0 1.318-.175 1.365-.681a31.3 31.3 0 0 0 .116-3.14c.798-.856 1.45-1.812 2.035-2.813.381.739.744 1.483.998 2.287.433 1.368 1.154 2.626 1.572 4 .273.902 2.237.369 1.966-.523-.416-1.374-1.106-2.644-1.571-4.001zm11.796-2.314c-.105-.415-.689-.424-1.14-.384-.006-.167-.01-.335-.018-.502-.063-1.329-.083-2.686-.197-4.01-.105-1.227-.795-1.666-1.993-1.62-1.213.045-2.625.262-3.755.7-1.309.506-2.037 1.465-2.289 2.836-.275 1.504.12 3.104.188 4.615.077 1.749.033 3.501.03 5.25 0 .287 1.966.016 1.967-.523.001-1.386.02-2.77 0-4.156a25.915 25.915 0 0 0-.052-1.22c.688-.297 1.851.005 2.535.07.556.052 1.089-.083 1.628-.146.01 1.154.054 2.314.102 3.466.024.591.239 1.763-.178 2.252-.22.258.743.171.78.165.398-.073.884-.2 1.156-.52.477-.559.23-1.892.201-2.558-.039-.954-.05-1.91-.07-2.864.579-.074 1.213-.427 1.105-.85zM43.65 9.16c-.052-.621-.109-1.243-.152-1.868-.08-1.164.059-2.787 1.15-3.494.29-.19.84-.157 1.18-.219.488-.087.983-.194 1.42.095.608.4.459 1.826.458 2.43-.001 1.002.104 1.998.156 2.997a6.942 6.942 0 0 1-.845.038c-1.147-.026-2.28-.206-3.367.021zM12.1 3.344a1.59 1.59 0 0 0 .741-.261l.129-.108c.26-.167.488-.413.365-.68-.253-.551-.212-1.113-.209-1.704.003-.478-.483-.622-.893-.586-.363.032-1.089.29-1.092.759-.003.496-.036 1.006.055 1.494-.024.056-.038.119-.053.177a.346.346 0 0 0 .072.294v.067l.008.167a.45.45 0 0 0 .216.265c.194.116.44.137.661.116z"/></svg>