<svg xmlns="http://www.w3.org/2000/svg" width="16.5" height="16"><path d="M1.462 16h6.316V9.15H1.462zM15.698 4.367h-3.705c.263-.132.497-.27.705-.417.802-.558 1.224-1.265 1.222-1.97.001-.575-.28-1.084-.686-1.428A2.35 2.35 0 0 0 11.71 0c-.616 0-1.188.207-1.677.527-.737.482-1.316 1.207-1.73 2.003-.019.038-.039.077-.057.116a6.34 6.34 0 0 0-.526-.883A4.822 4.822 0 0 0 6.459.527C5.969.208 5.396 0 4.78 0a2.381 2.381 0 0 0-1.594.638c-.418.385-.712.928-.713 1.544-.001.36.106.736.327 1.078.28.429.72.801 1.33 1.107H.804A.794.794 0 0 0 0 5.15v2.904h7.777V4.366h.946v3.688H16.5V5.15a.791.791 0 0 0-.802-.783M4.402 3.215c-.314-.193-.505-.387-.616-.56a.86.86 0 0 1-.15-.474c-.002-.248.126-.513.35-.72a1.21 1.21 0 0 1 .788-.328h.007c.346 0 .69.114 1.034.337.514.33.998.91 1.336 1.57.173.332.308.684.399 1.027-1.557-.158-2.565-.493-3.147-.852m5.322-.802c.282-.392.611-.722.953-.943.344-.222.688-.337 1.034-.337h.003c.29 0 .565.109.755.271.19.166.288.364.29.577-.003.252-.138.62-.742 1.05-.574.406-1.566.824-3.095 1.116a5.144 5.144 0 0 1 .802-1.734M8.725 16h6.317V9.15H8.725z"/></svg>