<svg xmlns="http://www.w3.org/2000/svg" width="15" height="28"><path d="M11.692 5.246c1.028.03 1.998 0 2.687-.303.392-.826.558-1.872.621-3.019-.19-.015-.062-.34-.208-.403-.029-.204-.278-.197-.31-.402-.277-.167-.457-.426-.724-.604-.729-.164-1.444-.338-2.17-.504-.85.044-1.9-.104-2.586.1-2.626-.04-4.007 1.132-5.273 2.417-.023.079-.003.2-.105.201C3.05 4.332 3.5 6.387 3.42 8.367c.099.44.107.967.204 1.409-1 .299-2.217.39-3.41.504-.318.327-.179 1.1-.207 1.71.085.589.279 1.07.414 1.611.212.195.598.4.827.503.065.03.071.083.103.101.508.27 1.455.008 2.274.101-.136 1.998.257 3.955 0 5.738.007.33.296.385.209.806-.001.972-.067 2.01.208 2.717-.288.46-.498.992-.416 1.812.122.016.114.159.105.302-.075.475.645.177.517.705.162.46-.43.186-.414.503v.905c.531.288 1.465.184 2.273.201.91-.423 2.194-.484 2.793-1.208.46.237.918-.014 1.24-.2-.017-.32.274-.337.206-.706-.004-.331-.173-.501-.103-.905v-2.92c-.207-2.315-.048-4.987-.31-7.248.89-.106 1.922-.076 2.585-.402.358-.455.378-1.242.517-1.914.177-.228.222-.589.207-1.006.19-.215.068-.737.104-1.107-.142-.601-.169-1.313-.827-1.404-.887-.238-2.048.6-2.999.302.05-1.146-.294-2.366 0-3.423.748-.182 1.45-.404 2.172-.608zm-3.828 4.832c.117.256.255.49.415.705.08.022.203.003.205.102a10.27 10.27 0 0 0 3.104-.302c0 1.008-.271 1.75-.519 2.517-.664.045-1.47.303-1.963.2-.277.167-.373.511-.622.705-.049.446.143.5 0 .805-.201.139-.055.617-.205.804v1.511c.085.284-.146.26-.104.502v3.524c-.086.283.146.26.104.503v3.019c.063.274-.132.799.103.905-.07.368-.413-.021-.826.101-.53.123-.928.373-1.552.404.117-.357.321-.628.312-1.108.05-.385-.366-.315-.517-.495.193-.65.563-1.128.724-1.811.197-.52.715-1.311.31-1.812-.523-.106-.522.296-.828.402-.022.078-.002.198-.103.2-.023.079-.003.199-.103.202.01.121-.152.062 0 0 .022-.079.002-.2.103-.201.023-.078.002-.2.103-.201v-.302c.37-.581.672-1.227.828-2.013.192-.283.284-.663.413-1.008.157-.264.341-.877.105-1.207-.519.034-.798.298-.933.704-.32-.19.162-.438.105-.704.138-.233.169-.571.31-.805.202-.417.565-1.317 0-1.612-.44-.023-.614.21-.726.503-.214.193-.43.387-.517.705-.374-.07-.143-.734-.206-1.108-.068-.525.122-.908 0-1.207-.562-.807-2.032-.106-3.205-.302-.109-.31-.223-.994-.105-1.207 1.048-.089 2.486.203 3.205-.201.024-.079.003-.2.105-.201.094-.73-.272-1.01-.517-1.41.233-.814.04-2.04.105-3.02.233-.142.328-.418.516-.604.112-.964.675-1.49.724-2.515-.274.001-.609-.055-.62.201-.304-.115-.384.484-.517.201-.112-.546.246-.632.31-1.007.6-.422 1.215-.828 1.86-1.207 1.746-.246 4.66-.453 6.102.2.05.622-.288.863-.208 1.511h-1.55c-1.094.243-1.992.68-2.998 1.007-.24.067-.277.335-.518.402-.036.4-.225.653-.311 1.006-.08 1.446.133 2.616.102 4.019z"/></svg>