<svg xmlns="http://www.w3.org/2000/svg" width="16" height="18.5"><path d="M8 18.5c4.417 0 8-3.55 8-7.929-4.418 0-8 3.55-8 7.929zM2.316 8.149c0 1.216.995 2.203 2.221 2.203.467 0 .903-.146 1.258-.388l-.018.167c0 1.216.996 2.202 2.222 2.202a2.213 2.213 0 0 0 2.222-2.202l-.018-.167c.36.246.792.388 1.259.388a2.213 2.213 0 0 0 2.221-2.203c0-.877-.519-1.63-1.27-1.982a2.198 2.198 0 0 0 1.27-1.983 2.213 2.213 0 0 0-2.221-2.202 2.24 2.24 0 0 0-1.259.387l.019-.167A2.213 2.213 0 0 0 8 0a2.214 2.214 0 0 0-2.222 2.202l.018.167a2.212 2.212 0 0 0-1.258-.387 2.213 2.213 0 0 0-2.222 2.202c0 .877.52 1.63 1.271 1.983a2.19 2.19 0 0 0-1.271 1.982zM8 3.964c1.227 0 2.222.987 2.222 2.203A2.213 2.213 0 0 1 8 8.369a2.214 2.214 0 0 1-2.222-2.202c0-1.216.995-2.203 2.222-2.203zm-8 6.607C0 14.95 3.582 18.5 8 18.5c0-4.378-3.582-7.929-8-7.929z"/></svg>